<svg height="50" viewBox="0 0 64 64" width="50" xmlns="http://www.w3.org/2000/svg">
    <path style="fill:#ffffff" d="m43 23v-3.18l9.2-1.84a1 1 0 0 0 .8-.98v-1a1 1 0 0 0 -.9-.995l-9.24-.924-1.874-11.246a1 1 0 0 0 -.986-.835h-4a1 1 0 0 0 -.446.1 9.383 9.383 0 0 1 -3.554.9 9.383 9.383 0 0 1 -3.554-.895 1 1 0 0 0 -.446-.105h-4a1 1 0 0 0 -.986.835l-1.875 11.246-9.239.924a1 1 0 0 0 -.9.995v1a1 1 0 0 0 .8.98l9.2 1.84v3.18a11 11 0 0 0 6 9.786v.214h-7a1 1 0 0 0 -.949 1.316l1.473 4.418-4.986 1.866a7.038 7.038 0 0 0 -4.538 6.56v13.84a1 1 0 0 0 1 1h40a1 1 0 0 0 1-1v-13.84a7.036 7.036 0 0 0 -4.538-6.56l-4.986-1.871 1.472-4.417a1 1 0 0 0 -.948-1.312h-7v-.214a11 11 0 0 0 6-9.786zm-8 16h-6v-5.426a10.776 10.776 0 0 0 6 0zm-12.9-23a1 1 0 0 0 .886-.83l1.861-11.17h2.931a11.126 11.126 0 0 0 4.222 1 11.142 11.142 0 0 0 4.223-1h2.93l1.861 11.165a1 1 0 0 0 .886.835l6.684.669-6.684 1.331h-19.8l-6.683-1.336zm.9 7v-3h18v3a9 9 0 0 1 -18 0zm4 12v4h-4.279l-1.334-4zm-14 12.16a5.028 5.028 0 0 1 3.241-4.684l4.971-1.865a1 1 0 0 0 .788.389h16v19h-25zm38 0v12.84h-11v-19h2a1 1 0 0 0 .787-.389l4.972 1.865a5.028 5.028 0 0 1 3.241 4.684zm-8.388-12.16-1.333 4h-4.279v-4z"/>
    <path style="fill:#ffffff" d="m37 25h-2a3 3 0 0 1 -6 0h-2a5 5 0 0 0 10 0z"/>
    <path style="fill:#ffffff" d="m34 43h2v2h-2z"/>
    <path style="fill:#ffffff" d="m34 47h2v2h-2z"/>
    <path style="fill:#ffffff" d="m34 51h2v2h-2z"/>
    <path style="fill:#ffffff" d="m34 55h2v2h-2z"/>
</svg>